<svg width="60" height="60" viewBox="0 0 60 60" fill="none" xmlns="http://www.w3.org/2000/svg">
<rect width="60" height="60" rx="5" fill="#E9ECF2"/>
<path d="M29.8 13.2C23.2952 13.2 17.3936 16.9516 14.6188 22.8H12.2001C11.9235 22.8 11.6657 22.9438 11.5204 23.1797C11.3751 23.4156 11.361 23.7094 11.4844 23.9578L14.6844 30.3578C14.8204 30.6281 15.0969 30.8 15.4001 30.8C15.7032 30.8 15.9798 30.6281 16.1157 30.3578L19.3157 23.9578C19.4392 23.7094 19.4267 23.4156 19.2798 23.1797C19.1345 22.9438 18.8767 22.8 18.6001 22.8H16.4142C19.0485 17.9032 24.1734 14.8 29.8002 14.8C38.1814 14.8 45.0002 21.6188 45.0002 30C45.0002 38.3812 38.1814 45.2 29.8002 45.2C23.5754 45.2 18.0422 41.4688 15.7066 35.6936C15.541 35.2842 15.0769 35.0874 14.6644 35.2514C14.255 35.417 14.0566 35.8826 14.2222 36.2936C16.805 42.6764 22.919 46.8 29.8002 46.8C39.0642 46.8 46.6002 39.264 46.6002 30C46.6002 20.736 39.0642 13.2 29.8002 13.2H29.8ZM15.4 28.2108L13.4938 24.3999H17.3047L15.4 28.2108ZM33 31.5999C33 32.9233 31.9235 33.9999 30.6 33.9999V35.1999C30.6 35.6421 30.2422 35.9999 29.8 35.9999C29.3578 35.9999 29 35.6421 29 35.1999V33.9999H27.8C27.3578 33.9999 27 33.6421 27 33.1999C27 32.7577 27.3578 32.3999 27.8 32.3999H30.6C31.0407 32.3999 31.4 32.0405 31.4 31.5999C31.4 31.1593 31.0406 30.7999 30.6 30.7999H29C27.6766 30.7999 26.6 29.7233 26.6 28.3999C26.6 27.0764 27.6766 25.9999 29 25.9999V24.7999C29 24.3577 29.3578 23.9999 29.8 23.9999C30.2422 23.9999 30.6 24.3577 30.6 24.7999V25.9999H31.8C32.2422 25.9999 32.6 26.3577 32.6 26.7999C32.6 27.2421 32.2422 27.5999 31.8 27.5999H29C28.5594 27.5999 28.2 27.9593 28.2 28.3999C28.2 28.8405 28.5594 29.1999 29 29.1999H30.6C31.9235 29.1999 33 30.2764 33 31.5999ZM29.8 39.1999C24.7264 39.1999 20.6 35.0735 20.6 29.9999C20.6 24.9263 24.7264 20.7999 29.8 20.7999C34.8736 20.7999 39 24.9263 39 29.9999C39 35.0735 34.8736 39.1999 29.8 39.1999ZM29.8 22.3999C25.6092 22.3999 22.2 25.8093 22.2 29.9999C22.2 34.1905 25.6094 37.5999 29.8 37.5999C33.9907 37.5999 37.4 34.1905 37.4 29.9999C37.4 25.8093 33.9907 22.3999 29.8 22.3999Z" fill="black"/>
</svg>
